<?xml version="1.0" encoding="UTF-8" standalone="no" ?>
<!DOCTYPE svg PUBLIC "-//W3C//DTD SVG 1.1//EN" "http://www.w3.org/Graphics/SVG/1.1/DTD/svg11.dtd">
<svg xmlns="http://www.w3.org/2000/svg" xmlns:xlink="http://www.w3.org/1999/xlink" version="1.1" width="1080" height="1080" viewBox="0 0 1080 1080" xml:space="preserve">
<desc>Created with Fabric.js 5.2.4</desc>
<defs>
</defs>
<g transform="matrix(1 0 0 1 540 540)" id="a59bb4e9-9406-4be2-89f2-0065289b1b94"  >
<rect style="stroke: none; stroke-width: 1; stroke-dasharray: none; stroke-linecap: butt; stroke-dashoffset: 0; stroke-linejoin: miter; stroke-miterlimit: 4; fill: rgb(255,255,255); fill-rule: nonzero; opacity: 1; visibility: hidden;" vector-effect="non-scaling-stroke"  x="-540" y="-540" rx="0" ry="0" width="1080" height="1080" />
</g>
<g transform="matrix(1 0 0 1 540 540)" id="3bdebd57-360b-491d-a0c7-a6c5bd46124f"  >
</g>
<g transform="matrix(0.84 0 0 0.84 540 540)"  >
<g style="" vector-effect="non-scaling-stroke"   >
		<g transform="matrix(1 0 0 1 0 256.39)"  >
<path style="stroke: none; stroke-width: 1; stroke-dasharray: none; stroke-linecap: butt; stroke-dashoffset: 0; stroke-linejoin: miter; stroke-miterlimit: 4; fill: rgb(52,152,219); fill-rule: nonzero; opacity: 1;" vector-effect="non-scaling-stroke"  transform=" translate(-4.34, -205.16)" d="M 0 0 C 2.34617939 0.00567184 4.69235145 0.00847275 7.03853607 0.0110817 C 84.71835923 0.13637492 164.72477961 9.30231065 248.98659515 45.31805801 C 249.94066254 45.7437709 250.89472992 46.1694838 251.87770844 46.60809708 C 282.59642846 60.34585657 310.77475484 78.5253339 335.6467514 101.19696426 C 337.7746433 103.12592136 339.93380374 105.00842154 342.11159515 106.88055801 C 348.96229986 112.88007296 354.95378444 119.30829462 360.64284515 126.41962051 C 362.19343901 128.33718825 363.7767545 130.22879362 365.39284515 132.09149551 C 432.75656119 209.90085106 412.98659515 312.82219877 412.98659515 410.31805801 C 142.38659515 410.31805801 -128.21340485 410.31805801 -407.01340485 410.31805801 C -407.01340485 231.26313035 -407.01340485 231.26313035 -401.45090485 211.56805801 C -401.20042389 210.67232071 -400.94994293 209.7765834 -400.69187164 208.85370255 C -386.09484381 158.99022098 -352.18410956 116.20664314 -311.01340485 85.31805801 C -310.34889313 84.81306778 -309.68438141 84.30807755 -308.99973297 83.78778458 C -296.90345631 74.62820882 -284.24665928 66.72802037 -271.01340485 59.31805801 C -270.16439606 58.84126602 -269.31538727 58.36447403 -268.44065094 57.8732338 C -242.24643233 43.31069584 -214.52992047 33.20731784 -186.01340485 24.31805801 C -184.86243317 23.95840958 -183.71146149 23.59876114 -182.52561188 23.22821426 C -123.83199448 5.18814547 -61.11854704 -0.1504937 0 0 Z" stroke-linecap="round" />
</g>
		<g transform="matrix(1 0 0 1 -1.36 -230.31)"  >
<path style="stroke: none; stroke-width: 1; stroke-dasharray: none; stroke-linecap: butt; stroke-dashoffset: 0; stroke-linejoin: miter; stroke-miterlimit: 4; fill: rgb(52,152,219); fill-rule: nonzero; opacity: 1;" vector-effect="non-scaling-stroke"  transform=" translate(152.37, -173.59)" d="M 0 0 C 7.64340016 6.78525789 15.12643873 13.54071926 21.63525391 21.45166016 C 22.37904297 22.30759766 23.12283203 23.16353516 23.88916016 24.04541016 C 63.41584559 70.06709085 82.39624803 130.49239394 78.41259766 190.82373047 C 73.17167735 253.62250446 44.27154958 310.20771056 -3.36474609 351.45166016 C -35.18838834 378.14884064 -74.32579365 396.08688176 -115.36474609 402.45166016 C -116.50081299 402.62826172 -117.63687988 402.80486328 -118.80737305 402.98681641 C -129.77422864 404.53037635 -140.61153884 404.85143945 -151.67724609 404.82666016 C -153.05512802 404.82584442 -153.05512802 404.82584442 -154.46084595 404.82501221 C -170.06638447 404.78272123 -185.06515067 403.75655386 -200.36474609 400.45166016 C -201.85627197 400.1302002 -201.85627197 400.1302002 -203.37792969 399.80224609 C -238.10891722 392.03146334 -271.10935489 376.40908582 -298.36474609 353.45166016 C -298.94804687 352.96842285 -299.53134766 352.48518555 -300.13232422 351.98730469 C -312.04369917 342.11576876 -322.80031183 331.66547604 -332.36474609 319.45166016 C -333.16654297 318.45521484 -333.96833984 317.45876953 -334.79443359 316.43212891 C -371.89348178 269.90038085 -388.34445116 209.37708098 -382.54492188 150.39770508 C -376.95676989 100.87242978 -357.04075586 54.54761199 -322.85302734 18.12744141 C -320.76813524 15.88544597 -318.77364404 13.60490666 -316.80224609 11.26416016 C -286.29344342 -23.69533843 -238.96055165 -44.77251717 -194.36474609 -53.54833984 C -193.46208008 -53.72623047 -192.55941406 -53.90412109 -191.62939453 -54.08740234 C -123.92024145 -66.67516079 -51.35317674 -45.22145414 0 0 Z" stroke-linecap="round" />
</g>
</g>
</g>
<g transform="matrix(NaN NaN NaN NaN 0 0)"  >
<g style=""   >
</g>
</g>
<g transform="matrix(NaN NaN NaN NaN 0 0)"  >
<g style=""   >
</g>
</g>
<g transform="matrix(NaN NaN NaN NaN 0 0)"  >
<g style=""   >
</g>
</g>
</svg>