<svg xmlns="http://www.w3.org/2000/svg" xml:space="preserve" width="2000" height="478" data-id="lg_90HFt3p9B9vAhO0fsm" data-version="1" viewBox="0 0 2000 478"><g data-padding="20"><path d="M1011.555 399.191 1000 405.15l-11.555-5.959-100.34-52.042-57.369 29.79L1000 464.685l169.264-87.746-57.37-29.79Z"/><path d="M1011.555 311.4 1000 317.403l-11.555-6.003-100.34-51.998-57.369 29.745L1000 376.938l169.264-87.79-57.37-29.746ZM1000 13.315c-34.616.024-62.67 28.08-62.695 62.695 0 34.62 62.695 125.39 62.695 125.39s62.695-90.725 62.695-125.391S1034.62 13.315 1000 13.315m0 87.746a25.096 25.096 0 1 1 0-50.102c13.252.796 23.592 11.775 23.592 25.052 0 13.275-10.34 24.254-23.592 25.05"/><path d="M1057.504 143.444a623 623 0 0 1-18.37 32.138c18.01 5.643 29.79 15.121 29.79 25.82 0 17.286-30.829 31.324-68.924 31.324s-68.969-13.992-68.969-31.325c0-10.743 11.825-20.176 29.835-25.819a623 623 0 0 1-18.37-32.138l-111.76 57.957L1000 289.147l169.264-87.746Z"/><path fill="transparent" stroke="transparent" d="M820.5 0h359v478h-359z"/></g></svg>